<svg xmlns="http://www.w3.org/2000/svg" width="900" height="1200" viewBox="0 0 900 1200">
  <defs>
    <linearGradient id="f1" x1="0" y1="0" x2="0.6" y2="1">
      <stop offset="0" stop-color="#6b1f2a"/><stop offset="1" stop-color="#4a141d"/>
    </linearGradient>
    <pattern id="w1" width="34" height="34" patternUnits="userSpaceOnUse" patternTransform="rotate(45)">
      <path d="M0 17H34M17 0V34" stroke="#c8ab7d" stroke-opacity="0.08" stroke-width="1.4"/>
    </pattern>
    <pattern id="buti1" width="120" height="150" patternUnits="userSpaceOnUse">
      <path d="M60 60 q14 -22 0 -38 q-14 16 0 38z" fill="#c8ab7d" fill-opacity="0.18"/>
      <circle cx="60" cy="98" r="4" fill="#c8ab7d" fill-opacity="0.16"/>
    </pattern>
  </defs>
  <rect width="900" height="1200" fill="url(#f1)"/>
  <rect width="900" height="1200" fill="url(#w1)"/>
  <rect width="900" height="1200" fill="url(#buti1)"/>
  <rect x="0" y="980" width="900" height="220" fill="#43121a" fill-opacity="0.5"/>
  <g stroke="#c8ab7d" stroke-opacity="0.55" fill="none">
    <line x1="0" y1="1000" x2="900" y2="1000" stroke-width="2"/>
    <line x1="0" y1="1150" x2="900" y2="1150" stroke-width="2"/>
  </g>
  <g fill="#c8ab7d" fill-opacity="0.5">
    <path d="M60 1075 l7 20 21 2 -16 14 5 21 -17 -12 -17 12 5 -21 -16 -14 21 -2z" transform="scale(1)"/>
    <path d="M300 1075 l7 20 21 2 -16 14 5 21 -17 -12 -17 12 5 -21 -16 -14 21 -2z"/>
    <path d="M540 1075 l7 20 21 2 -16 14 5 21 -17 -12 -17 12 5 -21 -16 -14 21 -2z"/>
    <path d="M780 1075 l7 20 21 2 -16 14 5 21 -17 -12 -17 12 5 -21 -16 -14 21 -2z"/>
  </g>
</svg>
